<svg width="24" height="24" viewBox="0 0 24 24" fill="none" xmlns="http://www.w3.org/2000/svg">
<g opacity="0.5">
<path d="M17 20V18C17 16.9391 16.7366 15.9217 16.2678 15.1716C15.7989 14.4214 15.163 14 14.5 14H9.5C8.83696 14 8.20107 14.4214 7.73223 15.1716C7.26339 15.9217 7 16.9391 7 18V20M23 18V16C23 14.9391 22.7893 13.9217 22.4142 13.1716C22.0391 12.4214 21.5304 12 21 12H19M1 18V16C1 14.9391 1.21071 13.9217 1.58579 13.1716C1.96086 12.4214 2.46957 12 3 12H5M5 9C3.89543 9 3 8.10457 3 7C3 5.89543 3.89543 5 5 5M19 9C20.1046 9 21 8.10457 21 7C21 5.89543 20.1046 5 19 5M15 7C15 8.65685 13.6569 10 12 10C10.3431 10 9 8.65685 9 7C9 5.34315 10.3431 4 12 4C13.6569 4 15 5.34315 15 7Z" stroke="#979EAC" stroke-width="2" stroke-linecap="round" stroke-linejoin="round"/>
</g>
</svg>
